<svg xmlns="http://www.w3.org/2000/svg" viewBox="0 0 1024 1024">
<path fill="#ff5000" d="M476.206 683.009c-29.676-7.526-56.686-19.625-80.132-38.987-29.726-24.548-50.926-55.148-64.486-91.149-8.226-21.839-12.989-44.432-13.608-67.73-1.337-50.371 14.734-94.871 46.272-133.954 14.405-17.851 30.809-33.656 48.938-47.688.92-.712 1.84-1.431 2.703-2.209.346-.311.54-.79.972-1.451-2.029-1.22-3.579.163-5.046.797-21.746 9.397-40.642 22.978-56.293 40.621-6.007 6.772-11.324 8.844-20.115 6-12.796-4.14-26.09-6.736-39.162-10.027-5.544-1.396-5.936-2.451-3.023-7.462 13.605-23.41 31.315-42.701 55.906-54.839 18.35-9.058 37.792-12.235 58.235-10.555 14.002 1.15 27.73 3.502 41.325 6.852 4.958 1.222 9.286.383 13.801-2.237 25.41-14.745 51.285-28.558 80.43-34.585 29.148-6.028 58.152-6.729 86.663 3.499 9.653 3.463 18.521 8.374 26.231 15.191 20.242 17.897 24.801 40.217 14.952 64.38-16.34 40.088-45.505 67.465-88.231 76.813-31.82 6.962-53.808-10.844-60.789-40.396-.379-1.605-.303-3.317-2.325-5.174-1.751 4.269-2.316 8.404-1.9 12.541 1.348 13.425 6.262 25.445 14.794 35.957 3.64 4.484 3.541 5.367-1.31 8.55-19.509 12.804-38.943 25.724-56.555 41.114-25.876 22.612-45.237 49.421-51.519 83.949-8.99 49.41 15.921 99.11 66.582 114.75 34.409 10.623 67.259 2.094 90.399-30.893 6.41-9.137 12.392-18.582 18.982-27.584 21.406-29.241 48.312-50.964 84.211-59.693 29.33-7.131 58.113-6.021 85.751 7.338 6.8 3.286 6.853 4.024.914 8.972-17.083 14.232-29.812 31.726-39.057 51.859-7.166 15.605-14.388 31.125-26.156 44.065-18.048 19.847-40.474 31.021-66.838 34.66-5.889.813-11.833 1.229-19.123 1.966 7.727 3.081 14.261 5.357 20.587 8.179 14.341 6.396 26.623 15.65 37.379 27.098 10.386 11.055 20.858 22.07 34.963 28.664 2.787 1.303 6.18 1.531 8.237 4.088 0 2.037-1.525 2.718-2.714 3.496-36.79 24.049-76.184 31.693-118.565 17.862-18.6-6.07-32.956-18.525-45.347-33.328-3.635-4.343-7.224-8.742-10.561-13.315-13.774-18.878-32.246-29.925-55.244-33.637-3.609-.583-7.158-1.54-11.127-2.442zM579.798 299.525c-.306.946-.66 1.879-.91 2.84-1.786 6.858.805 13.945 6.553 17.985 6.014 4.227 13.587 4.315 19.596.227 5.945-4.044 8.676-11.36 6.835-18.306-1.861-7.019-7.332-12.049-14.934-12.669-7.392-.603-13.201 2.524-17.14 9.923z"/>
<path fill="#fff" d="M253.703 234.704c38.295-38.635 82.63-67.162 133.783-84.748 28.903-9.936 58.622-16.383 89.104-19.295 40.008-3.823 79.471-.94 118.457 8.801 61.398 15.34 114.013 45.792 157.746 91.553 3.847 4.026 4.237 8.161 1.217 11.545-3.162 3.545-7.753 3.665-11.957-.019-31.196-27.343-66.463-47.79-105.378-61.935-24.5-8.906-49.819-14.44-75.735-17.323-12.93-1.438-25.873-2.149-38.879-1.939-47.834.773-93.337 11.605-136.51 32.05-40.096 18.988-75.281 44.683-104.404 78.326-34.926 40.346-59.805 85.942-71.937 138.198-5.295 22.807-8.382 45.869-7.785 69.27 1.604 62.874 20.379 120.04 57.622 170.958 29.236 39.971 65.243 72.466 108.015 97.34 39.386 22.904 81.662 37.521 127.122 42.03 30.527 3.027 60.95 1.319 90.899-5.309 8.782-1.944 16.796-.112 25.134 1.035 42.764 5.885 82.142-2.591 117.583-27.756 4.786-3.398 8.955-7.474 12.954-11.722 6.783-7.204 5.259-15.463-3.607-20.032-8.576-4.42-8.457-4.253-.544-9.92 64.877-46.464 106.031-108.484 122.121-186.833 1.335-6.502 2.032-13.138 2.951-19.722.758-5.429 4.351-8.746 9.259-8.405 4.438.308 7.357 3.68 7.352 9.066-.018 17.587-3.061 34.775-6.908 51.872-10.958 48.704-30.301 93.777-59.327 134.402-42.991 60.172-99.75 102.599-168.928 128.357-33.57 12.5-68.258 19.919-104.155 21.96-84.094 4.783-159.867-18.963-228.839-66.1-43.576-29.781-78.549-67.906-106.112-112.745-24.69-40.167-40.736-83.672-48.484-130.25-11.934-71.739-1.696-140.375 29.555-205.74 17.216-36.011 40.183-68.29 68.615-96.968z"/>
<path fill="#fff" d="M852.313 458.888c-.018 11.924-3.478 15.423-14.798 15.43-7.159.005-14.318.008-21.477-.005-10.142-.018-14.254-4.079-14.257-14.174-.015-50.449-.011-100.898-.015-151.347 0-2.831-.097-5.664-.003-8.491.227-6.831 4.591-11.879 11.435-12.173 9.139-.391 18.319-.389 27.459-.012 7.514.31 11.635 5.381 11.646 13.448.035 25.974.011 51.948.01 77.922 0 26.307 0 52.614.01 79.402z"/>
<path fill="#fff" d="M738.681 437c0-27.826-.005-55.151.005-82.477.003-9.296 4.058-13.487 13.299-13.588 7.83-.085 15.664-.113 23.493.021 8.648.148 12.845 4.41 12.855 13.041.043 35.989.045 71.979.014 107.968-.007 8.14-4.168 12.281-12.307 12.343-8.497.064-16.995.068-25.492-.014-7.487-.072-11.729-4.26-11.841-11.804-.123-8.329-.026-16.661-.026-25.49z"/>
<path fill="#ff5000" d="M306.623 647.396c-17.429-15.717-29.722-34.12-34.008-57.187-4.518-24.315 1.08-46.928 12.188-68.469 3.67-7.117 8.228-13.708 13.477-19.786 1.051-1.218 1.897-2.759 4.268-3.026 2.222 6.118 2.331 12.616 3.436 18.864 4.557 25.763 14.054 49.57 27.961 71.621 2.615 4.146 3.312 7.538 1.639 12.401-6.034 17.545-7.383 35.766-6.288 54.21.098 1.658.102 3.323.097 4.985 0 .295-.263.589-.802 1.707-8.299-3.528-14.938-9.405-21.968-15.321z"/>
<path fill="#ff5000" d="M496.665 501.06c-.093-14.539-3.307-27.87-10.118-40.175-2.161-3.904-1.173-5.689 2.254-7.944 19.042-12.53 38.156-24.963 56.437-38.611 5.027-3.753 6.085-3.406 7.635 2.535 5.246 20.103 7.192 40.275.446 60.441-8.294 24.791-24.948 40.77-50.502 47.03-7.876 1.929-9.612.138-7.882-7.483 1.146-5.047 1.854-10.138 1.73-15.793z"/>
<path fill="#fff" d="M702.997 474.322c-4.99-.006-9.486.103-13.973-.047-6.546-.219-11.099-4.46-11.153-11.024-.175-21.294-.185-42.59-.039-63.884.046-6.691 4.545-11.19 11.433-11.447 8.472-.316 16.976-.335 25.446.007 6.799.275 10.551 4.532 10.577 11.413.081 21.128.098 42.257.03 63.385-.025 7.656-4.087 11.499-11.842 11.589-3.327.038-6.655.005-10.479.008z"/>
</svg>
